<?xml version="1.0" encoding="UTF-8" standalone="no"?>
<!DOCTYPE svg PUBLIC "-//W3C//DTD SVG 1.1//EN" "http://www.w3.org/Graphics/SVG/1.1/DTD/svg11.dtd">
<svg width="100%" height="100%" viewBox="0 0 567 354" version="1.1" xmlns="http://www.w3.org/2000/svg" xmlns:xlink="http://www.w3.org/1999/xlink" xml:space="preserve" xmlns:serif="http://www.serif.com/" style="fill-rule:evenodd;clip-rule:evenodd;stroke-linejoin:round;stroke-miterlimit:1.41421;">
    <g transform="matrix(1,0,0,1,-12716.9,-1157.69)">
        <g transform="matrix(4.16667,0,0,4.16667,9000,0)">
            <g opacity="0.5">
                <g transform="matrix(1,0,0,1,936.277,329.039)">
                    <path d="M0,-51.194C-14.505,-51.194 -26.304,-39.394 -26.304,-24.89L-26.304,-5.657C-26.304,-2.532 -23.771,0 -20.647,0C-17.522,0 -14.99,-2.532 -14.99,-5.657L-14.99,-24.89C-14.99,-33.156 -8.267,-39.881 0,-39.881C8.267,-39.881 14.99,-33.156 14.99,-24.89L14.99,-5.657C14.99,-2.532 17.522,0 20.647,0C23.771,0 26.304,-2.532 26.304,-5.657L26.304,-24.89C26.304,-39.394 14.504,-51.194 0,-51.194" style="fill:rgb(64,64,65);fill-rule:nonzero;"/>
                </g>
                <g transform="matrix(1,0,0,1,936.277,329.039)">
                    <path d="M0,-31.253C-3.125,-31.253 -5.657,-28.721 -5.657,-25.596L-5.657,-5.656C-5.657,-2.532 -3.125,0 0,0C3.124,0 5.656,-2.532 5.656,-5.656L5.656,-25.596C5.656,-28.721 3.124,-31.253 0,-31.253" style="fill:rgb(64,64,65);fill-rule:nonzero;"/>
                </g>
                <g transform="matrix(1,0,0,1,982.714,274.117)">
                    <path d="M0,17.846C8.472,12.013 17.107,17.63 17.435,17.846C18.413,18.522 19.531,18.845 20.639,18.845C22.435,18.845 24.205,17.99 25.301,16.396C27.073,13.825 26.426,10.302 23.852,8.53C23.237,8.106 8.549,-1.774 -6.417,8.53C-8.991,10.302 -9.639,13.825 -7.866,16.396C-6.097,18.971 -2.57,19.62 0,17.846" style="fill:rgb(64,64,65);fill-rule:nonzero;"/>
                </g>
                <g transform="matrix(1,0,0,1,1004.02,308.454)">
                    <path d="M0,9.272L-20.176,9.272C-18.603,6.326 -15.011,2.715 -6.784,0.44C-3.772,-0.391 -2.007,-3.507 -2.84,-6.519C-3.671,-9.53 -6.779,-11.313 -9.798,-10.463C-29.961,-4.89 -33.504,9.106 -32.56,15.727C-32.158,18.548 -29.738,20.585 -26.967,20.585C-26.857,20.585 -26.746,20.568 -26.635,20.562C-26.555,20.565 -26.479,20.585 -26.399,20.585L0,20.585C3.124,20.585 5.656,18.053 5.656,14.929C5.656,11.804 3.124,9.272 0,9.272" style="fill:rgb(64,64,65);fill-rule:nonzero;"/>
                </g>
                <g transform="matrix(1,0,0,1,899.007,351.174)">
                    <path d="M0,-3.538C0.54,-3.538 1.007,-3.735 1.4,-4.128C1.793,-4.521 1.989,-4.988 1.989,-5.529C1.989,-6.083 1.793,-6.55 1.4,-6.928C1.007,-7.306 0.54,-7.494 0,-7.494L-2.983,-7.494L-2.983,-8.004C-2.983,-8.559 -3.181,-9.025 -3.573,-9.403C-3.966,-9.781 -4.434,-9.968 -4.973,-9.968C-5.528,-9.968 -5.994,-9.781 -6.372,-9.403C-6.75,-9.025 -6.939,-8.559 -6.939,-8.004L-6.939,-0.393C-6.877,1.474 -6.191,3.069 -4.88,4.395C-3.569,5.72 -1.936,6.399 0.023,6.43C0.562,6.414 1.025,6.213 1.411,5.829C1.797,5.444 1.989,4.98 1.989,4.441C1.989,3.886 1.793,3.42 1.4,3.043C1.007,2.665 0.548,2.475 0.023,2.475C-0.81,2.475 -1.519,2.178 -2.104,1.584C-2.69,0.992 -2.983,0.285 -2.983,-0.533L-2.983,-3.538L0,-3.538Z" style="fill:rgb(64,64,65);fill-rule:nonzero;"/>
                </g>
                <g transform="matrix(1,0,0,1,927.042,349.099)">
                    <path d="M0,3.089C-0.545,3.078 -1.013,3.27 -1.405,3.662C-1.983,4.24 -2.691,4.532 -3.523,4.537C-4.359,4.542 -5.064,4.256 -5.642,3.678C-6.23,3.089 -6.522,2.379 -6.517,1.544C-6.513,0.71 -6.22,0.004 -5.642,-0.575C-5.065,-1.151 -4.358,-1.444 -3.524,-1.448C-2.69,-1.454 -1.979,-1.162 -1.391,-0.573C-1.02,-0.203 -0.561,-0.012 -0.016,-0.001C0.529,0.009 0.998,-0.182 1.391,-0.574C1.771,-0.955 1.964,-1.419 1.963,-1.964C1.964,-2.51 1.777,-2.978 1.406,-3.37C0,-4.733 -1.636,-5.409 -3.5,-5.398C-5.364,-5.388 -6.973,-4.75 -8.324,-3.486C-9.742,-1.981 -10.456,-0.301 -10.468,1.552C-10.478,3.405 -9.808,5.041 -8.455,6.459C-7.027,7.821 -5.375,8.498 -3.499,8.487C-1.625,8.477 0.005,7.8 1.391,6.458C1.783,6.066 1.979,5.603 1.98,5.069C1.979,4.534 1.782,4.071 1.391,3.679C1.008,3.297 0.546,3.1 0,3.089" style="fill:rgb(64,64,65);fill-rule:nonzero;"/>
                </g>
                <g transform="matrix(1,0,0,1,937.357,355.105)">
                    <path d="M0,-11.424C-0.26,-11.416 -1.02,-11.418 -1.88,-11.418L-1.88,-11.934C-1.88,-12.473 -2.076,-12.94 -2.47,-13.333C-2.862,-13.726 -3.329,-13.923 -3.868,-13.923C-4.424,-13.923 -4.891,-13.726 -5.269,-13.333C-5.646,-12.94 -5.835,-12.473 -5.835,-11.934L-5.835,0.511C-5.835,1.065 -5.646,1.532 -5.269,1.909C-4.891,2.287 -4.424,2.477 -3.868,2.477C-3.329,2.477 -2.862,2.287 -2.47,1.909C-2.076,1.532 -1.88,1.065 -1.88,0.511L-1.88,-7.469C-1.301,-7.469 -0.355,-7.468 0,-7.468C0.833,-7.468 1.541,-7.173 2.128,-6.578C2.713,-5.986 3.007,-5.278 3.007,-4.464L3.007,0.533C3.007,1.09 3.204,1.556 3.596,1.934C3.989,2.311 4.455,2.499 4.996,2.499C5.551,2.499 6.017,2.311 6.396,1.934C6.772,1.556 6.961,1.09 6.961,0.533L6.961,-4.6C6.9,-6.467 6.213,-8.063 4.903,-9.389C3.593,-10.715 1.957,-11.393 0,-11.424" style="fill:rgb(64,64,65);fill-rule:nonzero;"/>
                </g>
                <g transform="matrix(1,0,0,1,953.15,357.604)">
                    <path d="M0,-13.923C-1.929,-13.877 -3.55,-13.187 -4.869,-11.855C-6.187,-10.52 -6.862,-8.889 -6.894,-6.963L-6.87,-1.988C-6.87,-1.434 -6.682,-0.967 -6.304,-0.59C-5.926,-0.212 -5.459,-0.022 -4.903,-0.022C-4.364,-0.022 -3.897,-0.212 -3.505,-0.59C-3.111,-0.967 -2.915,-1.434 -2.915,-1.988L-2.915,-6.963C-2.884,-7.84 -2.587,-8.562 -2.024,-9.123C-1.461,-9.687 -0.764,-9.967 0.069,-9.967C0.886,-9.967 1.587,-9.672 2.174,-9.077C2.76,-8.485 3.054,-7.777 3.054,-6.963L3.054,-1.966C3.054,-1.409 3.249,-0.943 3.643,-0.565C4.035,-0.188 4.502,0 5.042,0C5.597,0 6.063,-0.188 6.442,-0.565C6.818,-0.943 7.008,-1.409 7.008,-1.966L7.008,-7.099C6.945,-8.966 6.264,-10.557 4.962,-11.877C3.658,-13.196 2.004,-13.877 0,-13.923" style="fill:rgb(64,64,65);fill-rule:nonzero;"/>
                </g>
                <g transform="matrix(1,0,0,1,971.076,348.526)">
                    <path d="M0,4.232C-0.587,4.826 -1.288,5.123 -2.104,5.123C-2.938,5.123 -3.647,4.826 -4.232,4.232C-4.819,3.64 -5.112,2.933 -5.112,2.115C-5.112,1.3 -4.819,0.592 -4.232,0.001C-3.647,-0.594 -2.938,-0.89 -2.104,-0.89C-1.288,-0.89 -0.587,-0.594 0,0.001C0.586,0.592 0.879,1.3 0.879,2.115C0.879,2.933 0.586,3.64 0,4.232M-2.104,-4.846C-4.079,-4.799 -5.718,-4.119 -7.021,-2.799C-8.323,-1.48 -9.006,0.157 -9.067,2.115C-9.006,4.075 -8.323,5.712 -7.021,7.031C-5.718,8.349 -4.079,9.031 -2.104,9.078C-0.147,9.031 1.483,8.349 2.787,7.031C4.09,5.712 4.771,4.075 4.834,2.115C4.771,0.157 4.09,-1.48 2.787,-2.799C1.483,-4.119 -0.147,-4.799 -2.104,-4.846" style="fill:rgb(64,64,65);fill-rule:nonzero;"/>
                </g>
                <g transform="matrix(1,0,0,1,979.75,357.582)">
                    <path d="M0,-16.4C-0.556,-16.4 -1.021,-16.203 -1.399,-15.81C-1.777,-15.417 -1.967,-14.95 -1.967,-14.411L-1.967,-1.966C-1.967,-1.412 -1.777,-0.945 -1.399,-0.567C-1.021,-0.19 -0.556,0 0,0C0.539,0 1.007,-0.19 1.398,-0.567C1.792,-0.945 1.989,-1.412 1.989,-1.966L1.989,-14.411C1.989,-14.95 1.792,-15.417 1.398,-15.81C1.007,-16.203 0.539,-16.4 0,-16.4" style="fill:rgb(64,64,65);fill-rule:nonzero;"/>
                </g>
                <g transform="matrix(1,0,0,1,992.656,348.526)">
                    <path d="M0,4.232C-0.587,4.826 -1.289,5.123 -2.105,5.123C-2.938,5.123 -3.647,4.826 -4.233,4.232C-4.819,3.64 -5.112,2.933 -5.112,2.115C-5.112,1.3 -4.819,0.592 -4.233,0.001C-3.647,-0.594 -2.938,-0.89 -2.105,-0.89C-1.289,-0.89 -0.587,-0.594 0,0.001C0.585,0.592 0.879,1.3 0.879,2.115C0.879,2.933 0.585,3.64 0,4.232M-2.105,-4.846C-4.079,-4.799 -5.718,-4.119 -7.021,-2.799C-8.323,-1.48 -9.006,0.157 -9.067,2.115C-9.006,4.075 -8.323,5.712 -7.021,7.031C-5.718,8.349 -4.079,9.031 -2.105,9.078C-0.147,9.031 1.483,8.349 2.787,7.031C4.09,5.712 4.771,4.075 4.833,2.115C4.771,0.157 4.09,-1.48 2.787,-2.799C1.483,-4.119 -0.147,-4.799 -2.105,-4.846" style="fill:rgb(64,64,65);fill-rule:nonzero;"/>
                </g>
                <g transform="matrix(1,0,0,1,1004.2,353.522)">
                    <path d="M0,-0.764C-0.587,-1.356 -0.88,-2.063 -0.88,-2.881C-0.88,-3.696 -0.587,-4.404 0,-4.995C0.585,-5.59 1.295,-5.886 2.128,-5.886C2.944,-5.886 3.646,-5.59 4.232,-4.995C4.818,-4.404 5.112,-3.696 5.112,-2.881L5.112,0.124C4.447,0.125 3.49,0.127 2.128,0.127C1.295,0.127 0.585,-0.17 0,-0.764M2.128,-9.842C0.153,-9.795 -1.485,-9.115 -2.788,-7.795C-4.09,-6.476 -4.773,-4.839 -4.835,-2.881C-4.773,-0.921 -4.087,0.721 -2.775,2.047C-1.465,3.372 0.169,4.051 2.128,4.082C2.496,4.071 3.614,4.068 4.534,3.787C4.431,3.934 4.366,4.097 4.232,4.232C3.646,4.826 2.938,5.123 2.104,5.123C1.58,5.123 1.121,5.313 0.728,5.691C0.335,6.068 0.138,6.534 0.138,7.089C0.138,7.628 0.331,8.09 0.717,8.477C1.103,8.861 1.564,9.062 2.104,9.078C4.062,9.047 5.697,8.368 7.008,7.043C8.318,5.717 9.004,4.128 9.066,2.278L9.066,-3.018C9.004,-4.885 8.322,-6.476 7.021,-7.795C5.717,-9.115 4.086,-9.795 2.128,-9.842" style="fill:rgb(64,64,65);fill-rule:nonzero;"/>
                </g>
                <g transform="matrix(1,0,0,1,1027.34,362.035)">
                    <path d="M0,-17.788C-0.394,-18.166 -0.861,-18.354 -1.4,-18.354C-1.955,-18.354 -2.422,-18.166 -2.8,-17.788C-3.178,-17.41 -3.366,-16.944 -3.366,-16.39L-3.366,-9.71C-4.176,-9.671 -5.001,-9.634 -5.245,-9.634C-6.078,-9.634 -6.787,-9.931 -7.373,-10.525C-7.96,-11.119 -8.253,-11.824 -8.253,-12.642L-8.253,-16.39C-8.253,-16.944 -8.449,-17.41 -8.843,-17.788C-9.234,-18.166 -9.702,-18.354 -10.241,-18.354C-10.797,-18.354 -11.264,-18.166 -11.641,-17.788C-12.019,-17.41 -12.208,-16.944 -12.208,-16.39L-12.208,-12.502C-12.146,-10.638 -11.46,-9.04 -10.148,-7.714C-8.838,-6.388 -7.204,-5.71 -5.245,-5.679C-4.966,-5.687 -4.206,-5.71 -3.484,-5.783C-3.6,-5.229 -3.817,-4.713 -4.245,-4.28C-4.832,-3.686 -5.54,-3.39 -6.373,-3.39C-6.898,-3.39 -7.356,-3.2 -7.75,-2.822C-8.144,-2.444 -8.339,-1.978 -8.339,-1.423C-8.339,-0.884 -8.146,-0.422 -7.761,-0.036C-7.375,0.349 -6.913,0.55 -6.373,0.566C-4.415,0.535 -2.78,-0.144 -1.47,-1.47C-0.159,-2.795 0.527,-4.384 0.589,-6.234L0.589,-16.39C0.589,-16.944 0.393,-17.41 0,-17.788" style="fill:rgb(64,64,65);fill-rule:nonzero;"/>
                </g>
                <g transform="matrix(1,0,0,1,913.583,350.614)">
                    <path d="M0,0.057C0,0.526 -0.16,0.921 -0.479,1.241C-0.799,1.56 -1.193,1.719 -1.662,1.719L-4.829,1.719C-5.286,1.719 -5.68,1.56 -6.013,1.241C-6.345,0.921 -6.511,0.526 -6.511,0.057C-6.511,-0.399 -6.345,-0.794 -6.013,-1.125C-5.68,-1.458 -5.286,-1.623 -4.829,-1.623L-1.662,-1.623C-1.193,-1.623 -0.799,-1.458 -0.479,-1.125C-0.16,-0.794 0,-0.399 0,0.057M1.056,5.297C1.056,5.766 0.896,6.161 0.576,6.479C0.257,6.8 -0.138,6.959 -0.606,6.959L-4.868,6.959C-6.498,6.92 -7.863,6.343 -8.964,5.229C-10.065,4.115 -10.643,2.769 -10.694,1.192L-10.694,-1.135C-10.643,-2.712 -10.068,-4.054 -8.974,-5.162C-7.879,-6.27 -6.53,-6.85 -4.927,-6.902L-0.606,-6.902C-0.138,-6.902 0.257,-6.742 0.576,-6.423C0.896,-6.104 1.056,-5.71 1.056,-5.24C1.056,-4.784 0.896,-4.39 0.576,-4.058C0.257,-3.725 -0.138,-3.559 -0.606,-3.559L-4.81,-3.559C-5.514,-3.559 -6.113,-3.308 -6.608,-2.807C-7.104,-2.304 -7.352,-1.708 -7.352,-1.018L-7.352,1.074C-7.352,1.765 -7.104,2.362 -6.608,2.863C-6.113,3.366 -5.514,3.616 -4.81,3.616L-0.606,3.616C-0.138,3.616 0.257,3.782 0.576,4.115C0.896,4.447 1.056,4.841 1.056,5.297" style="fill:rgb(64,64,65);fill-rule:nonzero;"/>
                </g>
            </g>
        </g>
    </g>
</svg>
